<svg width="1924" height="1090" viewBox="0 0 1924 1090" fill="none" xmlns="http://www.w3.org/2000/svg">
<path d="M2.11194 0H1920V1080H2.11194V0Z" fill="url(#paint0_linear_36_136)"/>
<path d="M72.8209 628.272C106.917 651.437 58.4974 750.574 98.6263 711.662C138.755 672.75 156.282 384.358 277.382 244.72C324.153 190.79 350.546 152.766 412.36 127.985C478.488 101.473 529.695 88.6648 591.116 127.985C645.769 162.971 678.67 249.044 685.966 279.308C693.262 309.573 704.019 344.159 733.391 361.456C783.083 390.719 824.68 332.399 857.426 279.308C882.152 239.218 875.666 188.514 890.258 158.249C904.851 127.985 941.331 184.191 981.46 127.985C1021.59 71.7786 1014.29 28.5432 1050.77 127.985C1087.25 227.426 1072.66 279.308 1134.68 309.573C1196.7 339.838 1190.66 434.704 1247.77 491.162C1283.61 526.589 1305.66 547.115 1349.92 564.662C1535.88 638.394 1485.87 173.816 1674.59 110.69C1703.91 100.886 1725.59 73.8693 1751.2 93.3963C1770.76 108.303 1773.35 129.957 1776.6 157.08L1776.74 158.249C1778.34 171.622 1776.74 192.838 1776.74 192.838L1791.33 223.102C1791.33 223.102 1805.92 145.279 1831.46 127.985C1857 110.69 1843.96 91.3404 1857 71.7786C1865.74 58.6628 1877.16 56.933 1882.53 41.5138C1970.71 -211.48 1874.96 966.335 1879.63 1077.62C1882.22 1079.47 1883.22 1081.43 1882.53 1083.49C1880.91 1088.35 1879.98 1086.03 1879.63 1077.62C1795.17 1017.11 21.502 1061.87 21.502 1061.87C21.502 1061.87 -52.0123 543.458 72.8209 628.272Z" fill="url(#paint1_linear_36_136)" fill-opacity="0.4"/>
<path d="M122.941 741.976C72.1282 645.536 126.652 553.009 104.794 435.884C83.4472 321.501 16.2323 160.52 4.82189 133.66L3.16785 1090L1850.72 1028.72L1839.69 679.08C1839.69 679.08 1788.88 918.085 1777.99 716.818C1767.1 515.551 1777.99 346.261 1777.99 108.826C1777.99 92.4509 1786.68 79.8276 1777.99 66.8953C1770.56 55.846 1745.32 146.563 1748.95 54.3162C1752.58 -37.9304 1738.06 33.3505 1716.29 92.0536C1694.51 150.757 1578.37 746.169 1509.41 788.099C1440.45 830.03 1480.37 909.697 1346.08 788.099C1211.79 666.502 1139.2 163.336 1117.42 92.0536C1095.64 20.7713 1095.64 37.5445 1052.09 92.0536C1008.54 146.563 954.094 402.34 896.022 272.355C837.95 142.37 594.775 867.768 543.962 850.995C493.149 834.222 449.595 54.3162 449.595 54.3162C449.595 54.3162 445.966 12.3862 424.189 54.3162C402.412 96.2462 329.966 1093.89 166.495 830.03C146.542 797.824 173.754 838.416 122.941 741.976Z" fill="url(#paint2_linear_36_136)" fill-opacity="0.2"/>
<defs>
<linearGradient id="paint0_linear_36_136" x1="961.056" y1="0" x2="961.056" y2="1080" gradientUnits="userSpaceOnUse">
<stop offset="0.276042" stop-color="#1A0212"/>
<stop offset="1" stop-color="#320322"/>
</linearGradient>
<linearGradient id="paint1_linear_36_136" x1="981.899" y1="2.81233" x2="981.899" y2="1083.49" gradientUnits="userSpaceOnUse">
<stop offset="0.78125" stop-color="#1E0735"/>
<stop offset="1" stop-color="#1E0735" stop-opacity="0"/>
</linearGradient>
<linearGradient id="paint2_linear_36_136" x1="963.168" y1="10" x2="963.168" y2="1090" gradientUnits="userSpaceOnUse">
<stop stop-color="#EA825C"/>
<stop offset="1" stop-color="white" stop-opacity="0"/>
</linearGradient>
</defs>
</svg>
