<svg width="1920" height="927" viewBox="0 0 1920 927" fill="none" xmlns="http://www.w3.org/2000/svg">
<path d="M131 927V0H1920V841.921L1799.33 927H131Z" fill="#D9D9D9" fill-opacity="0.5"/>
<path d="M326.444 771.707C289.863 771.707 260 740.773 260 702.353C260 663.933 289.863 633 326.444 633C363.026 633 392.889 663.933 392.889 702.353C392.889 740.773 363.026 771.707 326.444 771.707Z" stroke="url(#paint0_linear_44_153)" stroke-width="6"/>
<ellipse cx="326.445" cy="702.353" rx="43.4121" ry="41.6667" transform="rotate(90 326.445 702.353)" fill="url(#paint1_linear_44_153)"/>
<path d="M326.444 738.031C307.563 738.031 292.222 722.077 292.222 702.354C292.222 682.631 307.563 666.677 326.444 666.677C345.326 666.677 360.667 682.631 360.667 702.354C360.667 722.077 345.326 738.031 326.444 738.031Z" stroke="url(#paint2_linear_44_153)"/>
<path d="M326.445 730.795C311.399 730.795 299.167 718.081 299.167 702.353C299.167 686.626 311.399 673.912 326.445 673.912C341.491 673.912 353.723 686.626 353.723 702.353C353.723 718.081 341.491 730.795 326.445 730.795Z" stroke="url(#paint3_linear_44_153)"/>
<path d="M326.444 723.56C315.234 723.56 306.111 714.085 306.111 702.354C306.111 690.623 315.234 681.148 326.444 681.148C337.655 681.148 346.778 690.623 346.778 702.354C346.778 714.085 337.655 723.56 326.444 723.56Z" stroke="url(#paint4_linear_44_153)"/>
<mask id="mask0_44_153" style="mask-type:alpha" maskUnits="userSpaceOnUse" x="325" y="687" width="83" height="74">
<path d="M325.915 698.201L407.187 687.678L381.681 760.691L325.915 698.201Z" fill="#D9D9D9"/>
</mask>
<g mask="url(#mask0_44_153)">
<path d="M326.444 771.707C289.863 771.707 260 740.773 260 702.353C260 663.933 289.863 633 326.444 633C363.026 633 392.889 663.933 392.889 702.353C392.889 740.773 363.026 771.707 326.444 771.707Z" stroke="#3B762D" stroke-width="6"/>
</g>
<path d="M215 798L270 752" stroke="#3B762D" stroke-width="7" stroke-linecap="round"/>
<g filter="url(#filter0_i_44_153)">
<path d="M-48 798.532L215 798" stroke="url(#paint5_linear_44_153)" stroke-width="7" stroke-linecap="round"/>
</g>
<defs>
<filter id="filter0_i_44_153" x="-51.5" y="794.5" width="270" height="11.5325" filterUnits="userSpaceOnUse" color-interpolation-filters="sRGB">
<feFlood flood-opacity="0" result="BackgroundImageFix"/>
<feBlend mode="normal" in="SourceGraphic" in2="BackgroundImageFix" result="shape"/>
<feColorMatrix in="SourceAlpha" type="matrix" values="0 0 0 0 0 0 0 0 0 0 0 0 0 0 0 0 0 0 127 0" result="hardAlpha"/>
<feOffset dy="4"/>
<feGaussianBlur stdDeviation="2"/>
<feComposite in2="hardAlpha" operator="arithmetic" k2="-1" k3="1"/>
<feColorMatrix type="matrix" values="0 0 0 0 0 0 0 0 0 0 0 0 0 0 0 0 0 0 0.25 0"/>
<feBlend mode="normal" in2="shape" result="effect1_innerShadow_44_153"/>
</filter>
<linearGradient id="paint0_linear_44_153" x1="326.444" y1="567.776" x2="326.444" y2="774.707" gradientUnits="userSpaceOnUse">
<stop offset="0.0416667" stop-opacity="0"/>
<stop offset="0.822917" stop-color="#51BD36" stop-opacity="0.35"/>
</linearGradient>
<linearGradient id="paint1_linear_44_153" x1="283.033" y1="702.353" x2="358.28" y2="702.353" gradientUnits="userSpaceOnUse">
<stop stop-color="#3B762D"/>
<stop offset="1" stop-color="#51BD36" stop-opacity="0.07"/>
</linearGradient>
<linearGradient id="paint2_linear_44_153" x1="326.444" y1="666.177" x2="326.444" y2="733.707" gradientUnits="userSpaceOnUse">
<stop stop-color="#3BE400"/>
<stop offset="0.520833" stop-color="#51BD36" stop-opacity="0.05"/>
<stop offset="1" stop-color="#51BD36" stop-opacity="0.05"/>
</linearGradient>
<linearGradient id="paint3_linear_44_153" x1="326.445" y1="673.412" x2="326.445" y2="727.436" gradientUnits="userSpaceOnUse">
<stop stop-color="#3BE400"/>
<stop offset="1" stop-color="#51BD36" stop-opacity="0.05"/>
</linearGradient>
<linearGradient id="paint4_linear_44_153" x1="326.444" y1="680.648" x2="326.444" y2="721.166" gradientUnits="userSpaceOnUse">
<stop stop-color="#3BE400"/>
<stop offset="1" stop-color="#51BD36" stop-opacity="0.05"/>
</linearGradient>
<linearGradient id="paint5_linear_44_153" x1="83.5" y1="798.266" x2="-19.0655" y2="792.805" gradientUnits="userSpaceOnUse">
<stop stop-color="#3BE400"/>
<stop offset="1" stop-color="#3BE400" stop-opacity="0"/>
</linearGradient>
</defs>
</svg>
